<svg width="30" height="30" viewBox="0 0 30 30" fill="none" xmlns="http://www.w3.org/2000/svg">
<path d="M10.837 14.6265C11.8095 16.6146 13.4211 18.2189 15.4137 19.1823C15.5594 19.2513 15.7207 19.2813 15.8815 19.2691C16.0424 19.2569 16.1973 19.2031 16.331 19.1129L19.2649 17.1566C19.3947 17.07 19.544 17.0172 19.6993 17.0029C19.8546 16.9886 20.011 17.0133 20.1544 17.0748L25.6431 19.4271C25.8295 19.5063 25.9852 19.6439 26.0866 19.8193C26.188 19.9947 26.2297 20.1983 26.2054 20.3994C26.0319 21.7569 25.3695 23.0046 24.3423 23.9089C23.3151 24.8132 21.9935 25.3122 20.625 25.3122C16.3981 25.3122 12.3443 23.6331 9.35549 20.6442C6.36663 17.6554 4.6875 13.6016 4.6875 9.37473C4.68758 8.00618 5.18648 6.68459 6.0908 5.6574C6.99512 4.63021 8.24285 3.96786 9.60035 3.79438C9.80147 3.77002 10.005 3.81169 10.1804 3.9131C10.3558 4.01452 10.4935 4.17018 10.5727 4.35664L12.927 9.85016C12.9878 9.99225 13.0126 10.1472 12.9991 10.3012C12.9856 10.4552 12.9343 10.6035 12.8496 10.7328L10.9001 13.7117C10.8114 13.8457 10.7589 14.0005 10.7479 14.1608C10.7368 14.3211 10.7675 14.4816 10.837 14.6265V14.6265Z" stroke="white" stroke-width="2" stroke-linecap="round" stroke-linejoin="round"/>
</svg>
