<svg width="30" height="30" viewBox="0 0 30 30" fill="none" xmlns="http://www.w3.org/2000/svg">
<path d="M27.9497 6.44063C27.7653 6.25 27.4816 6.19562 27.2397 6.30687L27.1372 6.35375C27.0503 6.39375 26.9635 6.43375 26.876 6.47313C27.1303 6.0675 27.3322 5.63375 27.4716 5.185C27.5491 4.9375 27.4647 4.66688 27.2597 4.50687C27.0547 4.34687 26.7722 4.33 26.5503 4.46562C25.8372 4.89875 25.1522 5.21063 24.4441 5.42813C23.3753 4.39125 21.9197 3.75 20.3128 3.75C17.0335 3.75 14.3753 6.40812 14.3753 9.6875C14.3753 9.69063 14.3753 9.81437 14.3753 10L13.751 9.95C7.6741 9.23125 5.9441 5.14375 5.87223 4.9675C5.75598 4.67375 5.49973 4.45938 5.19035 4.395C4.8816 4.32938 4.56098 4.42625 4.33723 4.64938C4.21348 4.77375 3.12535 5.925 3.12535 8.125C3.12535 9.6925 3.8241 10.9638 4.72848 11.9525C4.30723 11.6956 4.0616 11.4875 4.05535 11.4819C3.76723 11.2306 3.35473 11.1781 3.01223 11.3519C2.67098 11.5262 2.46973 11.8906 2.5041 12.2725C2.51598 12.4044 2.78223 14.9056 5.6716 16.7944L5.14473 16.89C4.82535 16.9481 4.55848 17.1675 4.43973 17.47C4.3216 17.7731 4.36785 18.115 4.56285 18.375C4.62848 18.4631 5.8491 20.05 8.49973 20.9625C7.0841 21.4344 5.1391 21.875 2.81285 21.875C2.44535 21.875 2.11098 22.09 1.9591 22.425C1.8066 22.76 1.86473 23.1531 2.10723 23.4294C2.20785 23.545 4.64723 26.25 10.9378 26.25C21.3835 26.25 26.2503 16.5531 26.2503 10V9.6875C26.2503 9.595 26.2403 9.50437 26.2366 9.41313C27.5441 8.14937 28.036 7.20125 28.0597 7.15437C28.1778 6.91687 28.1341 6.63063 27.9497 6.44063Z" fill="#868686"/>
</svg>
