<svg width="50" height="43" viewBox="0 0 50 43" fill="none" xmlns="http://www.w3.org/2000/svg">
<path d="M42.6612 23.6855V16.4393C42.6612 15.8784 42.2065 15.4238 41.6457 15.4238H37.0195V9.89179H40.1446C40.7055 9.89179 41.1601 9.43725 41.1601 8.87629V5.16362C41.1601 4.60266 40.7055 4.14812 40.1446 4.14812C39.5838 4.14812 39.1291 4.60266 39.1291 5.16362V7.86079H2.031V6.17912H31.8634C32.4243 6.17912 32.8789 5.72458 32.8789 5.16362C32.8789 4.60266 32.4243 4.14812 31.8634 4.14812H15.2391V1.0155C15.2391 0.454538 14.7845 0 14.2236 0H7.40801C6.84718 0 6.39251 0.454538 6.39251 1.0155C6.39251 1.57646 6.84718 2.031 7.40801 2.031H13.2081V4.14825H1.0155C0.454673 4.14825 0 4.60279 0 5.16375V8.87642C0 9.43739 0.454673 9.89192 1.0155 9.89192H6.39251V15.7581C6.39251 15.7583 6.39251 15.7585 6.39251 15.7588V22.5739C6.39251 22.574 6.39251 22.5743 6.39251 22.5746V29.3897C6.39251 29.3898 6.39251 29.3901 6.39251 29.3903V35.3672C5.07683 35.8139 4.12699 37.0601 4.12699 38.525V41.9128C4.12699 42.4738 4.58167 42.9283 5.1425 42.9283H16.5429C17.1037 42.9283 17.5584 42.4738 17.5584 41.9128V38.5247C17.5584 37.0399 16.5829 35.7793 15.2391 35.3486V29.3901C15.2391 29.3899 15.2391 29.3897 15.2391 29.3894V22.574V15.7587C15.2391 15.7585 15.2391 15.7583 15.2391 15.758V9.89179H34.9885V15.4238H30.3623C29.8014 15.4238 29.3468 15.8784 29.3468 16.4393V23.6855C29.3468 24.2465 29.8014 24.701 30.3623 24.701H41.6455C42.2065 24.701 42.6612 24.2465 42.6612 23.6855ZM13.2081 28.3743H9.8597L11.288 26.946C11.6846 26.5492 11.6846 25.9064 11.288 25.5098C10.8914 25.1133 10.2484 25.1133 9.85198 25.5098L8.42365 26.9381V23.5895H13.2083V28.3743H13.2081ZM8.42351 16.7739H11.7721L8.42351 20.1225V16.7739ZM9.8597 21.5585L13.2083 18.21V21.5585H9.8597ZM13.2081 14.7429H9.8597L11.9193 12.6833C12.3159 12.2866 12.3159 11.6437 11.9193 11.2471C11.5227 10.8507 10.8797 10.8507 10.4832 11.2471L8.42365 13.3067V9.95827H13.2083V14.7429H13.2081ZM8.42351 30.4053H11.7721L8.42351 33.7539V30.4053ZM13.2081 31.8415V35.1901H9.8597L13.2081 31.8415ZM15.5274 40.8972H6.158V38.5247C6.158 37.8059 6.74279 37.2211 7.46163 37.2211H14.2236C14.9426 37.2211 15.5274 37.8059 15.5274 38.5247V40.8972ZM40.6302 22.67H31.3779V17.4548H40.6302V22.67Z" fill="white"/>
<path d="M48.9844 29.483H43.2774H37.5703C37.0094 29.483 36.5548 29.9376 36.5548 30.4985V35.1901H31.8632C31.3023 35.1901 30.8477 35.6447 30.8477 36.2056V41.9126C30.8477 42.4736 31.3023 42.9281 31.8632 42.9281H37.5703H43.2774H48.9844C49.5452 42.9281 49.9999 42.4736 49.9999 41.9126V36.2056V30.4985C49.9999 29.9376 49.5452 29.483 48.9844 29.483ZM47.9689 35.1901H44.2929V31.514H47.9689V35.1901ZM38.5858 31.514H42.2619V35.1901H38.5858V31.514ZM32.8787 37.2211H36.5548V40.8971H32.8787V37.2211ZM38.5858 37.2211H42.2619V40.8971H38.5858V37.2211ZM47.9689 40.8973H44.2929V37.2213H47.9689V40.8973Z" fill="white"/>
</svg>
