<svg width="50" height="50" viewBox="0 0 50 50" fill="none" xmlns="http://www.w3.org/2000/svg">
<path d="M48.8634 41.068C49.491 41.068 49.9997 40.5594 49.9997 39.9317V1.13642C49.9997 0.657785 49.6997 0.230365 49.2495 0.0676391C48.799 -0.0949351 48.2954 0.0418818 47.9895 0.41006L8.45576 47.9824C8.1741 48.3213 8.11379 48.7925 8.30106 49.1913C8.48834 49.5901 8.88909 49.8449 9.32984 49.8449H48.8635C49.4911 49.8449 49.9999 49.3363 49.9999 48.7086C49.9999 48.0808 49.4911 47.5722 48.8635 47.5722H11.7515L47.727 4.28169V39.9317C47.727 40.5594 48.2358 41.068 48.8634 41.068Z" fill="#F37F14"/>
<path d="M40.1344 21.7776L25.6516 39.2053C25.3699 39.5443 25.3096 40.0155 25.4969 40.4143C25.6841 40.813 26.0849 41.0679 26.5256 41.0679H41.0085C41.6361 41.0679 42.1449 40.5593 42.1449 39.9315V22.504C42.1449 22.0253 41.8449 21.5979 41.3946 21.4352C40.944 21.2726 40.4402 21.4094 40.1344 21.7776ZM39.872 38.7953H28.9473L39.872 25.6492V38.7953Z" fill="#F37F14"/>
<path d="M9.51399 36.9728L12.2314 33.5592L26.8546 15.1904C26.8561 15.1886 26.8573 15.1865 26.8587 15.1847C26.8656 15.1759 26.8717 15.1663 26.8784 15.1573C26.9047 15.1215 26.9287 15.0848 26.9503 15.0471C26.9559 15.0374 26.9617 15.0279 26.967 15.018C26.9928 14.97 27.0147 14.9207 27.0329 14.8704C27.0338 14.8679 27.0353 14.8656 27.0362 14.863L31.3667 2.66979C31.5291 2.21252 31.3832 1.70268 31.0036 1.40041C30.6239 1.09829 30.0944 1.07056 29.6852 1.33116L18.7733 8.28459C18.7675 8.28822 18.7625 8.29247 18.7568 8.29626C18.7404 8.30716 18.7245 8.31868 18.7087 8.3305C18.6936 8.34171 18.6784 8.35277 18.6641 8.36474C18.6507 8.37565 18.638 8.38716 18.6253 8.39868C18.6095 8.41277 18.5939 8.42686 18.5791 8.44171C18.5688 8.45201 18.5589 8.46307 18.5491 8.47383C18.5333 8.49095 18.5175 8.50822 18.503 8.52625C18.5004 8.52944 18.4975 8.53216 18.495 8.53534L7.29961 22.5983C6.90871 23.0892 6.98992 23.8042 7.48083 24.1951C7.97203 24.5857 8.68672 24.5048 9.07763 24.0137L19.5651 10.8399L24.3687 14.6639L11.1611 31.2547L5.46842 26.7229C4.97721 26.3322 4.26237 26.4132 3.87162 26.9043L1.15437 30.3177C0.27256 31.4254 -0.125163 32.8101 0.0345321 34.2169C0.194228 35.6236 0.892251 36.8842 1.99982 37.7659L2.06572 37.8183C3.00026 38.5624 4.17192 38.9722 5.36448 38.9722C6.99007 38.9722 8.50248 38.2436 9.51399 36.9728ZM21.3375 9.34564L22.9936 8.29035L24.1322 9.19685C24.3413 9.36352 24.5911 9.44428 24.8393 9.44428C25.1735 9.44428 25.5047 9.29746 25.7291 9.01579C26.12 8.52474 26.0388 7.8099 25.5479 7.41899L25.0204 6.99899L28.119 5.02447L25.4278 12.6021L21.3375 9.34564ZM5.36448 36.6995C4.67418 36.6995 4.02298 36.4715 3.48147 36.0403L3.41541 35.9877C2.78269 35.4841 2.3839 34.7641 2.29269 33.9604C2.20148 33.1568 2.4286 32.3659 2.93238 31.733L4.94206 29.2086L9.74565 33.0326L7.73597 35.5572C7.1581 36.2831 6.29372 36.6995 5.36448 36.6995Z" fill="#F37F14"/>
<path d="M11.8138 26.6412C12.148 26.6412 12.4792 26.4944 12.7036 26.2126L20.1343 16.8787C20.5252 16.3878 20.444 15.6728 19.9531 15.2819C19.4619 14.8913 18.7472 14.9722 18.3563 15.4633L10.9256 24.7971C10.5347 25.288 10.6159 26.003 11.1068 26.3939C11.316 26.5603 11.5657 26.6412 11.8138 26.6412Z" fill="#F37F14"/>
</svg>
