<svg width="50" height="37" viewBox="0 0 50 37" fill="none" xmlns="http://www.w3.org/2000/svg">
<path d="M30.0106 18.3945L25.2773 8.38131C23.9075 5.48373 20.9514 3.61146 17.7464 3.61146H10.2524V3.08296C10.2524 1.383 8.86936 0 7.16953 0H1.01116C0.452595 0 0 0.45273 0 1.01116V5.35295C0 5.91138 0.452595 6.36411 1.01116 6.36411H2.984C3.56886 6.36411 4.04464 6.83989 4.04464 7.42475V15.3553C4.04464 15.9138 4.49724 16.3665 5.0558 16.3665C5.61437 16.3665 6.06696 15.9138 6.06696 15.3553V7.42475C6.06696 5.72479 4.68397 4.34179 2.984 4.34179H2.02232V2.02246H7.16953C7.75439 2.02246 8.23004 2.49824 8.23004 3.0831V4.62276V17.8801H1.32246C0.763898 17.8801 0.311303 18.3329 0.311303 18.8913V32.0364C0.311303 32.5948 0.763898 33.0476 1.32246 33.0476H5.43357C5.88644 34.8525 7.52209 36.1933 9.46554 36.1933C11.4091 36.1933 13.0448 34.8525 13.4976 33.0476H18.9986C19.4515 34.8525 21.0871 36.1933 23.0306 36.1933C24.9742 36.1933 26.6098 34.8525 27.0627 33.0476H29.1269C29.6855 33.0476 30.1381 32.5948 30.1381 32.0364V18.9435C30.1391 18.9261 30.1408 18.909 30.1408 18.8913C30.1408 18.7108 30.0935 18.5413 30.0106 18.3945ZM10.2524 5.63392H17.7463C19.2389 5.63392 20.6598 6.17091 21.7742 7.0943H18.2834C16.0392 7.0943 14.2134 8.92005 14.2134 11.1643V11.226C14.2134 13.4703 16.0392 15.296 18.2834 15.296H23.0306C23.5892 15.296 24.0418 14.8433 24.0418 14.2849C24.0418 13.7264 23.5892 13.2737 23.0306 13.2737H18.2834C17.1544 13.2737 16.2357 12.3552 16.2357 11.226V11.1643C16.2357 10.0352 17.1543 9.11662 18.2834 9.11662H23.3849C23.4065 9.1595 23.4283 9.20224 23.4489 9.24578L27.5305 17.8803H10.2524V5.63392ZM9.46554 34.1712C8.28855 34.1712 7.33091 33.2135 7.33091 32.0365C7.33091 30.8595 8.28855 29.9019 9.46554 29.9019C10.6425 29.9019 11.6003 30.8595 11.6003 32.0365C11.6003 33.2135 10.6425 34.1712 9.46554 34.1712ZM23.0306 34.1712C21.8536 34.1712 20.896 33.2135 20.896 32.0365C20.896 30.8595 21.8536 29.9019 23.0306 29.9019C24.2068 29.9019 25.1637 30.8582 25.1652 32.034C25.1652 32.0349 25.1651 32.0357 25.1651 32.0365C25.1651 32.0373 25.1652 32.0383 25.1652 32.0391C25.1639 33.2149 24.2068 34.1712 23.0306 34.1712ZM28.1158 31.0252H27.0627C26.6098 29.2202 24.9742 27.8794 23.0306 27.8794C21.0871 27.8794 19.4515 29.2202 18.9986 31.0252H13.4976C13.0448 29.2202 11.4091 27.8794 9.46554 27.8794C7.52209 27.8794 5.88644 29.2202 5.43357 31.0252H2.33362V19.9025H9.2412H28.1158V31.0252Z" fill="#F37F14"/>
<path d="M48.9889 31.0252H34.2953V1.01128C34.2953 0.452852 33.8427 0.00012207 33.2841 0.00012207C32.7255 0.00012207 32.2729 0.452852 32.2729 1.01128V32.0365C32.2729 32.595 32.7255 33.0477 33.2841 33.0477H48.9889C49.5475 33.0477 50.0001 32.595 50.0001 32.0365C50.0001 31.4781 49.5475 31.0252 48.9889 31.0252Z" fill="#F37F14"/>
<path d="M48.9891 5.96851H37.1264C36.5678 5.96851 36.1152 6.42124 36.1152 6.97967V10.6314V14.2832V17.935V21.5867V25.2385V28.8903C36.1152 29.4487 36.5678 29.9015 37.1264 29.9015H48.9891C49.5476 29.9015 50.0002 29.4487 50.0002 28.8903V25.2385V21.5867V17.935V14.2832V10.6314V6.97967C50.0002 6.42124 49.5476 5.96851 48.9891 5.96851ZM47.9779 13.2722H38.1376V11.6427H47.9779V13.2722ZM47.9779 16.9238H38.1376V15.2944H47.9779V16.9238ZM38.1376 18.9461H47.9779V20.5756H38.1376V18.9461ZM38.1376 7.99083H47.9779V9.62028H38.1376V7.99083ZM47.9779 27.8794H38.1376V25.2388V22.5982H47.9779V24.2276H41.7629C41.2043 24.2276 40.7517 24.6804 40.7517 25.2388C40.7517 25.7972 41.2043 26.25 41.7629 26.25H47.9779V27.8794Z" fill="#F37F14"/>
</svg>
