<svg width="42" height="50" viewBox="0 0 42 50" fill="none" xmlns="http://www.w3.org/2000/svg">
<path d="M10.2253 17.3242H12.2633H27.9269V19.6493C27.9269 23.2689 24.9822 26.2135 21.3628 26.2135H21.2069C18.1572 26.2135 15.532 24.1455 14.823 21.1846C14.6742 20.5635 14.0499 20.1808 13.429 20.3293C12.8079 20.4781 12.4249 21.1021 12.5737 21.7233C13.5329 25.729 17.0831 28.5264 21.2069 28.5264H21.3628C26.2576 28.5264 30.2397 24.5442 30.2397 19.6495V17.3243H30.3062H32.3442C32.9829 17.3243 33.5007 16.8066 33.5007 16.1679C33.5007 15.5293 32.9829 15.0115 32.3442 15.0115H31.4626V12.0952C31.4626 8.26128 29.3123 4.92062 26.1548 3.21422V1.15642C26.1548 0.517766 25.637 0 24.9984 0C24.3597 0 23.842 0.517766 23.842 1.15642V2.31391C23.0521 2.11454 22.2259 2.00754 21.375 2.00754H21.1945C20.3437 2.00754 19.5174 2.11454 18.7275 2.31391V1.15642C18.7275 0.517766 18.2098 0 17.5711 0C16.9325 0 16.4147 0.517766 16.4147 1.15642V3.21422C13.2571 4.92047 11.1069 8.26112 11.1069 12.0952V15.0113H10.2253C9.58661 15.0113 9.06885 15.5291 9.06885 16.1678C9.06885 16.8064 9.58661 17.3242 10.2253 17.3242ZM13.4197 12.0952C13.4197 9.6095 14.5937 7.39412 16.4147 5.96988V6.42288C16.4147 7.06153 16.9325 7.5793 17.5711 7.5793C18.2098 7.5793 18.7275 7.06153 18.7275 6.42288V4.72372C19.5033 4.46345 20.3322 4.32021 21.1945 4.32021H21.375C22.2372 4.32021 23.0662 4.46345 23.842 4.72372V6.42288C23.842 7.06153 24.3597 7.5793 24.9984 7.5793C25.637 7.5793 26.1548 7.06153 26.1548 6.42288V5.96988C27.9759 7.39412 29.1498 9.60935 29.1498 12.0952V15.0113H13.4197V12.0952Z" fill="#F37F14"/>
<path d="M32.7555 30.4681H32.3445H9.36018H8.94911C4.01461 30.4681 0 34.4828 0 39.4173V48.8437C0 49.4824 0.517766 50.0001 1.15642 50.0001H9.36018H32.3445H40.5482C41.1869 50.0001 41.7046 49.4824 41.7046 48.8437V39.4173C41.7046 34.4828 37.69 30.4681 32.7555 30.4681ZM2.31283 39.4173C2.31283 35.758 5.28991 32.781 8.94911 32.781H9.36018H12.5426V41.2461C12.5426 41.8847 13.0604 42.4025 13.699 42.4025H28.0058C28.6444 42.4025 29.1622 41.8847 29.1622 41.2461V35.7417C29.1622 35.1031 28.6444 34.5853 28.0058 34.5853C27.3671 34.5853 26.8493 35.1031 26.8493 35.7417V40.0897H14.8555V32.781H31.1882V47.6872H10.5166V38.2089C10.5166 37.5702 9.99883 37.0525 9.36018 37.0525C8.72153 37.0525 8.20376 37.5702 8.20376 38.2089V47.6872H2.31283V39.4173ZM39.3918 47.6872H33.5009V32.8224C36.8105 33.194 39.3918 36.0098 39.3918 39.4171V47.6872Z" fill="#F37F14"/>
<path d="M13.6989 45.9376H28.0056C28.6442 45.9376 29.162 45.4198 29.162 44.7812C29.162 44.1425 28.6442 43.6248 28.0056 43.6248H13.6989C13.0602 43.6248 12.5425 44.1425 12.5425 44.7812C12.5425 45.4198 13.0602 45.9376 13.6989 45.9376Z" fill="#F37F14"/>
</svg>
