<svg width="34" height="34" viewBox="0 0 34 34" fill="none" xmlns="http://www.w3.org/2000/svg">
<g opacity="0.5">
<path opacity="0.3" d="M26.9165 28.3332H7.08317C6.30117 28.3332 5.6665 27.6985 5.6665 26.9165V7.08317C5.6665 6.30117 6.30117 5.6665 7.08317 5.6665H26.9165C27.6985 5.6665 28.3332 6.30117 28.3332 7.08317V26.9165C28.3332 27.6985 27.6985 28.3332 26.9165 28.3332Z" fill="white"/>
<path d="M12.7501 24.0835H9.17588V14.1668H12.7501V24.0835ZM10.9 12.3492C9.80771 12.3492 9.07812 11.6211 9.07812 10.6492C9.07812 9.67739 9.80629 8.94922 11.0204 8.94922C12.1126 8.94922 12.8422 9.67739 12.8422 10.6492C12.8422 11.6211 12.114 12.3492 10.9 12.3492ZM25.5001 24.0835H22.0406V18.6633C22.0406 17.1645 21.1184 16.8188 20.7727 16.8188C20.427 16.8188 19.2739 17.0497 19.2739 18.6633C19.2739 18.8942 19.2739 24.0835 19.2739 24.0835H15.6996V14.1668H19.2739V15.5509C19.7343 14.7434 20.6565 14.1668 22.3863 14.1668C24.116 14.1668 25.5001 15.5509 25.5001 18.6633V24.0835Z" fill="white"/>
<path d="M26.9167 4.25H7.08333C5.51792 4.25 4.25 5.51792 4.25 7.08333V26.9167C4.25 28.4821 5.51792 29.75 7.08333 29.75H26.9167C28.4821 29.75 29.75 28.4821 29.75 26.9167V7.08333C29.75 5.51792 28.4821 4.25 26.9167 4.25ZM26.9167 26.9167H7.08333V7.08333H26.9167V26.9167Z" fill="white"/>
</g>
</svg>
