<svg width="26" height="26" viewBox="0 0 26 26" fill="none" xmlns="http://www.w3.org/2000/svg">
<path fill-rule="evenodd" clip-rule="evenodd" d="M3 3V6.75H8V3H3ZM3 13V9.25H8V13H3ZM3 15.5V20.5C3 21.8808 4.11929 23 5.5 23C6.88071 23 8 21.8808 8 20.5V15.5H3ZM10.9885 23L14.139 19.8495L15.9885 18H18.4166H23V23H12.5834H10.9885ZM18.4885 15.5L22.6831 11.3054C23.6595 10.329 23.6595 8.7461 22.6831 7.76979L19.1476 4.23425C18.1714 3.25795 16.5884 3.25795 15.6121 4.23425L11.782 8.06441L10.5 9.34637V2.77273C10.5 1.51754 9.48246 0.5 8.22727 0.5H2.77273C1.51754 0.5 0.5 1.51754 0.5 2.77273V20.5C0.5 23.2614 2.73857 25.5 5.5 25.5H12.5834H23C24.3808 25.5 25.5 24.3808 25.5 23V18C25.5 16.6192 24.3808 15.5 23 15.5H18.4885ZM12.3713 18.0817L10.5 19.953V12.8819L13.5498 9.83219L17.3799 6.00202L20.9154 9.53755L12.3713 18.0817Z" fill="#192B29"/>
</svg>
