<svg width="30" height="30" viewBox="0 0 30 30" fill="none" xmlns="http://www.w3.org/2000/svg">
<path d="M26.25 7.1875V22.8125C26.25 24.7062 24.7062 26.25 22.8125 26.25H19.375V17.5H21.6375C21.9562 17.5 22.225 17.2625 22.2625 16.95L22.4938 15.075C22.5188 14.9 22.4625 14.7188 22.3438 14.5875C22.225 14.45 22.0562 14.375 21.875 14.375H19.375V12.1875C19.375 11.5 19.9375 10.9375 20.625 10.9375H21.875C22.2188 10.9375 22.5 10.6562 22.5 10.3125V8.2C22.5 7.88125 22.25 7.6125 21.9312 7.58125C21.8937 7.575 21.0125 7.5 19.8937 7.5C17.1438 7.5 15.625 9.1375 15.625 12.1063V14.375H13.125C12.7812 14.375 12.5 14.6562 12.5 15V16.875C12.5 17.2188 12.7812 17.5 13.125 17.5H15.625V26.25H7.1875C5.29375 26.25 3.75 24.7062 3.75 22.8125V7.1875C3.75 5.29375 5.29375 3.75 7.1875 3.75H22.8125C24.7062 3.75 26.25 5.29375 26.25 7.1875Z" fill="#868686"/>
</svg>
