<svg width="26" height="26" viewBox="0 0 26 26" fill="none" xmlns="http://www.w3.org/2000/svg">
<path fill-rule="evenodd" clip-rule="evenodd" d="M25.5 1.75V10.5C25.5 11.1904 24.9404 11.75 24.25 11.75H11.75V24.25C11.75 24.5815 11.6182 24.8995 11.3839 25.1339C11.1495 25.3682 10.8315 25.5 10.5 25.5H1.75C1.05964 25.5 0.5 24.9404 0.5 24.25V1.75C0.5 1.05965 1.05965 0.5 1.75 0.5H24.25C24.9404 0.5 25.5 1.05965 25.5 1.75ZM23 3H3V23H9.25V19.25H6.75C6.05965 19.25 5.5 18.6904 5.5 18C5.5 17.3096 6.05965 16.75 6.75 16.75H9.25V11.75H6.75C6.05965 11.75 5.5 11.1904 5.5 10.5C5.5 9.80965 6.05965 9.25 6.75 9.25H9.25V6.75C9.25 6.05965 9.80965 5.5 10.5 5.5C11.1904 5.5 11.75 6.05965 11.75 6.75V9.25H16.75V6.75C16.75 6.05965 17.3096 5.5 18 5.5C18.6904 5.5 19.25 6.05965 19.25 6.75V9.25H23V3Z" fill="#192B29"/>
</svg>
