<svg width="34" height="34" viewBox="0 0 34 34" fill="none" xmlns="http://www.w3.org/2000/svg">
<g opacity="0.5">
<path opacity="0.3" d="M17 4.25C15.3256 4.25 13.6677 4.57979 12.1208 5.22054C10.5739 5.86128 9.16834 6.80044 7.98439 7.98439C6.80044 9.16833 5.86128 10.5739 5.22054 12.1208C4.57979 13.6677 4.25 15.3256 4.25 17C4.25 18.6744 4.57979 20.3323 5.22054 21.8792C5.86128 23.4261 6.80044 24.8317 7.98439 26.0156C9.16834 27.1996 10.5739 28.1387 12.1208 28.7795C13.6677 29.4202 15.3256 29.75 17 29.75C18.6744 29.75 20.3323 29.4202 21.8792 28.7795C23.4261 28.1387 24.8317 27.1996 26.0156 26.0156C27.1996 24.8317 28.1387 23.4261 28.7795 21.8792C29.4202 20.3323 29.75 18.6744 29.75 17C29.75 15.3256 29.4202 13.6677 28.7795 12.1208C28.1387 10.5739 27.1996 9.16833 26.0156 7.98439C24.8317 6.80044 23.4261 5.86128 21.8792 5.22054C20.3323 4.57979 18.6744 4.25 17 4.25Z" fill="white"/>
<g opacity="0.3">
<path opacity="0.3" d="M29.6775 18.347C29.6789 18.3286 29.6832 18.3116 29.6846 18.2932C29.6832 18.3102 29.6789 18.3286 29.6775 18.347ZM4.31494 18.2875C4.31777 18.3116 4.32202 18.3357 4.32486 18.3598C4.32202 18.3371 4.31636 18.313 4.31494 18.2875ZM18.7253 20.3785H22.0247L22.5432 17.0267H18.7253V15.195C18.7253 13.8024 19.18 12.5685 20.4834 12.5685H22.5758V9.64304C22.2074 9.59346 21.4297 9.48438 19.9606 9.48438C16.8921 9.48438 15.0929 11.105 15.0929 14.7969V17.0267H11.938V20.3785H15.0929V29.5911C15.7177 29.686 16.3495 29.7498 16.9998 29.7498C17.5863 29.7498 18.16 29.696 18.7253 29.6195V20.3785Z" fill="white"/>
</g>
<path d="M17 4.25C15.3256 4.25 13.6677 4.57979 12.1208 5.22054C10.5739 5.86128 9.16834 6.80044 7.98439 7.98439C6.80044 9.16834 5.86128 10.5739 5.22054 12.1208C4.57979 13.6677 4.25 15.3256 4.25 17C4.25 18.6744 4.57979 20.3323 5.22054 21.8792C5.86128 23.4261 6.80044 24.8317 7.98439 26.0156C9.16834 27.1996 10.5739 28.1387 12.1208 28.7795C13.6677 29.4202 15.3256 29.75 17 29.75C18.6744 29.75 20.3323 29.4202 21.8792 28.7795C23.4261 28.1387 24.8317 27.1996 26.0156 26.0156C27.1996 24.8317 28.1387 23.4261 28.7795 21.8792C29.4202 20.3323 29.75 18.6744 29.75 17C29.75 15.3256 29.4202 13.6677 28.7795 12.1208C28.1387 10.5739 27.1996 9.16834 26.0156 7.98439C24.8317 6.80044 23.4261 5.86128 21.8792 5.22054C20.3323 4.57979 18.6744 4.25 17 4.25Z" stroke="white" stroke-width="2" stroke-miterlimit="10"/>
<path d="M29.6775 18.347C29.6789 18.3286 29.6832 18.3116 29.6846 18.2932C29.6832 18.3102 29.6789 18.3286 29.6775 18.347ZM4.31494 18.2875C4.31777 18.3116 4.32202 18.3357 4.32486 18.3598C4.32202 18.3371 4.31636 18.313 4.31494 18.2875ZM18.7253 20.3785H22.0247L22.5432 17.0267H18.7253V15.195C18.7253 13.8024 19.18 12.5685 20.4834 12.5685H22.5758V9.64304C22.2074 9.59346 21.4297 9.48438 19.9606 9.48438C16.8921 9.48438 15.0929 11.105 15.0929 14.7969V17.0267H11.938V20.3785H15.0929V29.5911C15.7177 29.686 16.3495 29.7498 16.9998 29.7498C17.5863 29.7498 18.16 29.696 18.7253 29.6195V20.3785Z" fill="white"/>
</g>
</svg>
