<svg width="50" height="43" viewBox="0 0 50 43" fill="none" xmlns="http://www.w3.org/2000/svg">
<path d="M49.6427 1.48626C49.1946 1.04454 48.4811 1.02506 48.0095 1.44138L24.2072 22.4485C23.7114 22.8862 23.6641 23.643 24.1018 24.1391C24.5396 24.6349 25.2965 24.6823 25.7924 24.2445L36.716 14.6035L21.1371 32.7848L15.8521 25.1317L20.4186 27.8727C20.9859 28.213 21.7216 28.0292 22.062 27.4622C22.4024 26.8949 22.2186 26.1592 21.6515 25.8187L12.3352 20.2267C11.8518 19.9365 11.231 20.0229 10.8452 20.4341C10.4594 20.8453 10.4127 21.4701 10.7331 21.9341L20.0494 35.4252C20.2605 35.731 20.6016 35.9214 20.9726 35.9407C20.9934 35.9418 21.0143 35.9423 21.035 35.9423C21.3837 35.9423 21.7163 35.7901 21.9445 35.5239L49.7116 3.1185C50.121 2.64086 50.0908 1.92782 49.6427 1.48626Z" fill="#F37F14"/>
<path d="M40.6069 16.0781C39.9454 16.0781 39.4092 16.6144 39.4092 17.2759V40.1351H6.51045V17.2759C6.51045 17.2075 6.50343 17.1409 6.49241 17.0758L22.9597 2.78349L32.0172 10.6447C32.5167 11.0784 33.2733 11.0246 33.7068 10.5252C34.1403 10.0257 34.0868 9.2692 33.5873 8.83563L23.7448 0.293201C23.2944 -0.0977336 22.625 -0.0977336 22.1747 0.293201L0.41264 19.1807C-0.0868874 19.6143 -0.140385 20.3707 0.293188 20.8703C0.530016 21.1432 0.863141 21.2829 1.19818 21.2829C1.47637 21.2829 1.756 21.1865 1.98277 20.9897L4.11502 19.1392V41.3328C4.11502 41.9943 4.65128 42.5306 5.31274 42.5306H40.6069C41.2683 42.5306 41.8046 41.9943 41.8046 41.3328V17.2759C41.8046 16.6144 41.2683 16.0781 40.6069 16.0781Z" fill="#F37F14"/>
</svg>
