<svg width="45" height="50" viewBox="0 0 45 50" fill="none" xmlns="http://www.w3.org/2000/svg">
<path d="M43.3482 30.4751C42.758 30.4751 42.2798 30.9533 42.2798 31.5435V44.8083H33.4603V28.4253C33.4603 28.4249 33.4603 28.4243 33.4603 28.4239V26.3725H43.3482C43.9384 26.3725 44.4166 25.8943 44.4166 25.3041C44.4166 24.7139 43.9384 24.2357 43.3482 24.2357H32.3919C31.8017 24.2357 31.3235 24.7139 31.3235 25.3041V25.8453L24.52 19.0418C23.483 18.0047 21.97 17.7278 20.6779 18.209C22.9005 16.0821 24.1535 13.1784 24.1535 10.0656C24.1535 5.92306 21.8917 2.11597 18.2507 0.130517C17.9199 -0.0501079 17.5179 -0.0425581 17.1937 0.149748C16.8697 0.342339 16.6708 0.691481 16.6708 1.0684V10.5787H9.01559V1.06826C9.01559 0.691339 8.81673 0.342054 8.49266 0.149606C8.16859 -0.042843 7.76674 -0.0499654 7.43569 0.130232C3.7947 2.11597 1.53289 5.92292 1.53289 10.0656C1.53289 13.4291 2.99527 16.5496 5.56406 18.7086V21.4922H3.63359C1.63004 21.4922 0 23.1221 0 25.1257V25.1776C0 26.1779 0.406407 27.0851 1.06267 27.7428C0.406407 28.4005 0 29.3076 0 30.308V30.3599C0 31.3602 0.406407 32.2674 1.06267 32.9251C0.406407 33.5828 0 34.4899 0 35.4903V35.5422C0 36.5425 0.406407 37.4497 1.06267 38.1074C0.406407 38.7651 0 39.6722 0 40.6726V40.7243C0 42.7279 1.6299 44.3581 3.63359 44.3581H5.7367C6.4622 47.6173 9.38097 50.0002 12.7811 50.0002H12.9053C16.3439 50.0002 19.2265 47.5824 19.9473 44.3581H28.4761C29.0663 44.3581 29.5445 43.8799 29.5445 43.2897C29.5445 42.6995 29.0663 42.2213 28.4761 42.2213H20.1223V33.4046C20.1223 32.8144 19.6441 32.3362 19.054 32.3362C18.4638 32.3362 17.9856 32.8144 17.9856 33.4046V42.7831C17.9856 45.5844 15.7066 47.8634 12.9053 47.8634H12.7811C10.5523 47.8634 8.61745 46.4096 7.94965 44.3581H9.63126C11.6348 44.3581 13.2648 42.728 13.2648 40.7243V40.6726C13.2648 39.6723 12.8584 38.7651 12.2022 38.1074C12.8584 37.4497 13.2648 36.5426 13.2648 35.5422V35.4903C13.2648 34.4901 12.8584 33.5828 12.2022 32.9251C12.8584 32.2674 13.2648 31.3603 13.2648 30.3599V30.308C13.2648 29.3078 12.8584 28.4005 12.2022 27.7428C12.8584 27.0851 13.2648 26.178 13.2648 25.1776V25.1257C13.2648 23.1222 11.6349 21.4922 9.63126 21.4922H7.70079V18.1962C7.70079 17.8636 7.54581 17.5499 7.2817 17.3477C4.98628 15.5914 3.66977 12.9371 3.66977 10.0656C3.66977 7.35368 4.86492 4.81922 6.879 3.09516V11.6469C6.879 12.2371 7.3572 12.7153 7.94737 12.7153H17.7393C18.3295 12.7153 18.8077 12.2371 18.8077 11.6469V3.09516C20.8215 4.81922 22.0168 7.35382 22.0168 10.0656C22.0168 12.9372 20.7003 15.5915 18.4048 17.3476C18.1407 17.5499 17.9857 17.8636 17.9857 18.1962V20.4373L15.1405 23.2826C14.4543 23.9689 14.0761 24.8816 14.0761 25.8521C14.0761 26.8226 14.4542 27.7351 15.1405 28.4214L15.1771 28.4581C15.8856 29.1665 16.816 29.5206 17.7464 29.5206C18.6768 29.5204 19.6074 29.1663 20.3156 28.4581L22.4427 26.3311C22.8601 25.9139 22.8601 25.2374 22.4428 24.8203C22.0256 24.403 21.3491 24.4031 20.932 24.8202L18.8048 26.9471C18.2214 27.5309 17.2715 27.5309 16.6882 26.9471L16.6516 26.9105C16.3688 26.6279 16.213 26.2519 16.213 25.8521C16.213 25.4521 16.3688 25.0763 16.6516 24.7936L20.8924 20.5527C21.476 19.9688 22.4256 19.969 23.0078 20.5511C23.0082 20.5516 23.0086 20.5521 23.0091 20.5526L31.3235 28.8672V45.8766C31.3235 46.4667 31.8017 46.9449 32.3919 46.9449H43.3482C43.9384 46.9449 44.4166 46.4667 44.4166 45.8766V31.5434C44.4166 30.9533 43.9384 30.4751 43.3482 30.4751ZM11.128 30.3079V30.3597C11.128 31.1851 10.4565 31.8566 9.63111 31.8566H3.63359C2.80824 31.8566 2.13673 31.1851 2.13673 30.3597V30.3079C2.13673 29.4825 2.80824 28.811 3.63359 28.811H9.63126C10.4566 28.811 11.128 29.4825 11.128 30.3079ZM11.128 35.4902V35.542C11.128 36.3674 10.4565 37.0389 9.63111 37.0389H3.63359C2.80824 37.0389 2.13673 36.3674 2.13673 35.542V35.4902C2.13673 34.6648 2.80824 33.9933 3.63359 33.9933H9.63126C10.4566 33.9933 11.128 34.6648 11.128 35.4902ZM11.128 40.7242C11.128 41.5497 10.4565 42.2212 9.63111 42.2212H3.63359C2.80824 42.2212 2.13673 41.5497 2.13673 40.7242V40.6725C2.13673 39.8471 2.80824 39.1756 3.63359 39.1756H9.63126C10.4566 39.1756 11.1281 39.8471 11.1281 40.6725V40.7242H11.128ZM11.128 25.1256V25.1775C11.128 26.0028 10.4565 26.6743 9.63111 26.6743H3.63359C2.80824 26.6743 2.13673 26.0028 2.13673 25.1775V25.1256C2.13673 24.3003 2.80824 23.6288 3.63359 23.6288H9.63126C10.4566 23.6288 11.128 24.3003 11.128 25.1256Z" fill="#F37F14"/>
</svg>
