<svg width="36" height="36" viewBox="0 0 36 36" fill="none" xmlns="http://www.w3.org/2000/svg">
<path d="M36 5.5V30.5C36 33.53 33.53 36 30.5 36H25V22H28.62C29.13 22 29.56 21.62 29.62 21.12L29.99 18.12C30.03 17.84 29.94 17.55 29.75 17.34C29.56 17.12 29.29 17 29 17H25V13.5C25 12.4 25.9 11.5 27 11.5H29C29.55 11.5 30 11.05 30 10.5V7.12C30 6.61 29.6 6.18 29.09 6.13C29.03 6.12 27.62 6 25.83 6C21.43 6 19 8.62 19 13.37V17H15C14.45 17 14 17.45 14 18V21C14 21.55 14.45 22 15 22H19V36H5.5C2.47 36 0 33.53 0 30.5V5.5C0 2.47 2.47 0 5.5 0H30.5C33.53 0 36 2.47 36 5.5Z" fill="#D3D3D3"/>
</svg>
