<svg width="26" height="24" viewBox="0 0 26 24" fill="none" xmlns="http://www.w3.org/2000/svg">
<path fill-rule="evenodd" clip-rule="evenodd" d="M0.5 10.3792V9.96062C0.5 4.87371 4.60405 0.75 9.66666 0.75H16.3334C21.396 0.75 25.5 4.87372 25.5 9.96062C25.5 15.0232 21.4349 19.132 16.4055 19.1709L12.2626 22.6397C10.57 24.0571 8 22.8477 8 20.6336V19.0821C3.75964 18.4726 0.5 14.8085 0.5 10.3792ZM10.6622 20.71L15.111 16.9849C15.3624 16.7745 15.6792 16.6592 16.0064 16.6592H16.3334C20.0153 16.6592 23 13.6601 23 9.96062C23 6.26105 20.0153 3.26197 16.3334 3.26197H9.66666C5.98476 3.26197 3 6.26105 3 9.96062V10.3792C3 13.8475 5.79822 16.6592 9.25 16.6592C9.83474 16.6592 10.3257 17.0626 10.4622 17.6076C10.4869 17.706 10.5 17.809 10.5 17.9151V20.6336C10.5 20.7179 10.5977 20.7639 10.6622 20.71ZM6.75 8.25C6.75 7.55965 7.30965 7 8 7H18C18.6904 7 19.25 7.55965 19.25 8.25C19.25 8.94035 18.6904 9.5 18 9.5H8C7.30965 9.5 6.75 8.94035 6.75 8.25ZM8 10.75C7.30965 10.75 6.75 11.3096 6.75 12C6.75 12.6904 7.30965 13.25 8 13.25H14.25C14.9404 13.25 15.5 12.6904 15.5 12C15.5 11.3096 14.9404 10.75 14.25 10.75H8Z" fill="white"/>
</svg>
